<svg id="visual" viewBox="0 0 900 600" width="900" height="600" xmlns="http://www.w3.org/2000/svg" xmlns:xlink="http://www.w3.org/1999/xlink" version="1.1"><g transform="translate(463.1159114849785 301.02481888190965)"><path d="M133.8 -219.9C176.2 -207.2 215.4 -177.1 221.7 -137.5C228.1 -98 201.5 -49 182.2 -11.2C162.9 26.7 150.7 53.3 141.2 87.4C131.7 121.5 124.9 162.9 101.8 190.8C78.7 218.6 39.3 232.8 5.5 223.3C-28.3 213.7 -56.7 180.5 -78.3 151.8C-100 123.2 -114.9 99.1 -150.8 74.5C-186.6 50 -243.3 25 -248.5 -3C-253.7 -31 -207.4 -62 -178.9 -99.2C-150.4 -136.5 -139.7 -180 -112.8 -201.6C-86 -223.3 -43 -223.1 1.3 -225.5C45.7 -227.8 91.3 -232.5 133.8 -219.9" fill="none" stroke="#ffffff" stroke-width="6"></path></g></svg>