<svg id="visual" viewBox="0 0 900 600" width="900" height="600" xmlns="http://www.w3.org/2000/svg" xmlns:xlink="http://www.w3.org/1999/xlink" version="1.1"><g transform="translate(456.23142870999857 305.2751874143929)"><path d="M95.3 -190.1C117 -152.6 123.4 -113.8 132.2 -81.9C140.9 -50 152 -25 171.6 11.3C191.2 47.7 219.5 95.3 206.3 119.6C193.1 143.8 138.6 144.7 97.3 166.7C56 188.7 28 231.8 -8.6 246.7C-45.2 261.6 -90.3 248.1 -122.1 220.6C-153.8 193.1 -172.2 151.6 -190.1 112.4C-208 73.3 -225.5 36.7 -221.6 2.3C-217.7 -32.2 -192.4 -64.3 -170.1 -95.8C-147.8 -127.3 -128.4 -158 -100.5 -191.9C-72.7 -225.9 -36.3 -262.9 0.2 -263.4C36.8 -263.8 73.7 -227.6 95.3 -190.1" fill="none" stroke="#ffffff" stroke-width="6"></path></g></svg>