<svg id="visual" viewBox="0 0 900 600" width="900" height="600" xmlns="http://www.w3.org/2000/svg" xmlns:xlink="http://www.w3.org/1999/xlink" version="1.1"><g transform="translate(423.4730278407181 324.33608202407294)"><path d="M86.1 -173.1C108.2 -136.4 120.3 -106.4 149 -78.7C177.7 -51 222.8 -25.5 243.9 12.2C265 49.8 262 99.7 233 126.8C204 153.9 149 158.4 105.8 158.5C62.7 158.5 31.3 154.3 -9.3 170.4C-50 186.6 -100 223.2 -136.5 219.3C-173 215.4 -196.1 170.9 -200.6 127.6C-205.1 84.3 -191 42.2 -192.2 -0.7C-193.3 -43.5 -209.7 -87 -202.9 -126.3C-196 -165.5 -166 -200.5 -128.3 -228.3C-90.7 -256 -45.3 -276.5 -6.7 -265C32 -253.4 64 -209.9 86.1 -173.1" fill="none" stroke="#ffffff" stroke-width="6"></path></g></svg>