<svg id="visual" viewBox="0 0 900 600" width="900" height="600" xmlns="http://www.w3.org/2000/svg" xmlns:xlink="http://www.w3.org/1999/xlink" version="1.1"><g transform="translate(416.2161406823918 307.1148247377143)"><path d="M116.3 -191.6C159.6 -176.4 209.7 -163.2 236.5 -131.6C263.2 -100 266.6 -50 259.1 -4.3C251.6 41.3 233.2 82.7 202.1 106.8C171 130.9 127.3 137.8 91.5 142.1C55.7 146.4 27.8 148.2 -9.6 164.8C-47 181.4 -94 212.8 -119.3 202.4C-144.5 192 -148 139.7 -160.5 99C-173 58.3 -194.5 29.2 -195 -0.2C-195.4 -29.7 -174.8 -59.3 -153.2 -84.3C-131.6 -109.3 -109.1 -129.5 -83.4 -154.9C-57.7 -180.2 -28.8 -210.6 3.8 -217.2C36.5 -223.9 73 -206.8 116.3 -191.6" fill="none" stroke="#ffffff" stroke-width="6"></path></g></svg>