<svg id="visual" viewBox="0 0 900 600" width="900" height="600" xmlns="http://www.w3.org/2000/svg" xmlns:xlink="http://www.w3.org/1999/xlink" version="1.1"><g transform="translate(447.38918371036164 266.6207154299845)"><path d="M98.3 -165.3C129.6 -152.2 158.8 -130.4 172.9 -101.3C187 -72.3 186 -36.2 198 6.9C209.9 50 234.9 100 225 136.2C215 172.5 170.3 194.9 127 215.6C83.7 236.2 41.8 255.1 8.4 240.5C-25 226 -50 177.9 -76 147.3C-102 116.6 -128.9 103.3 -156.1 81.7C-183.3 60 -210.6 30 -219.1 -4.9C-227.7 -39.8 -217.3 -79.7 -190.2 -101.3C-163 -123 -119 -126.4 -84.5 -137.7C-50 -148.9 -25 -168 4.2 -175.3C33.5 -182.7 67 -178.4 98.3 -165.3" fill="none" stroke="#ffffff" stroke-width="6"></path></g></svg>